<svg xmlns="http://www.w3.org/2000/svg" viewBox="0 0 680 420" width="680" height="420" font-family="'Fira Code', 'Courier New', monospace">
  <!-- Window background -->
  <rect width="680" height="420" rx="12" ry="12" fill="#1e1e1e"/>

  <!-- Title bar -->
  <rect width="680" height="40" rx="12" ry="12" fill="#2d2d2d"/>
  <rect y="20" width="680" height="20" fill="#2d2d2d"/>

  <!-- Traffic lights -->
  <circle cx="20" cy="20" r="6" fill="#ff5f57"/>
  <circle cx="40" cy="20" r="6" fill="#ffbd2e"/>
  <circle cx="60" cy="20" r="6" fill="#28c840"/>

  <!-- Title text -->
  <text x="340" y="25" fill="#aaaaaa" font-size="13" text-anchor="middle" dominant-baseline="middle">akash@portfolio ~ — zsh</text>

  <!-- Terminal content -->
  <text x="20" y="65" fill="#aaaaaa" font-size="13">┌─────────────────────────────────────────────────────────────┐</text>
  <text x="20" y="83" fill="#aaaaaa" font-size="13">│  🍎  akash@portfolio ~ — zsh                                │</text>
  <text x="20" y="101" fill="#aaaaaa" font-size="13">├─────────────────────────────────────────────────────────────┤</text>
  <text x="20" y="119" fill="#aaaaaa" font-size="13">│                                                             │</text>
  <text x="20" y="137" fill="#aaaaaa" font-size="13">│  </text><text x="44" y="137" fill="#6AD3F7" font-size="13">$ whoami</text>
  <text x="20" y="155" fill="#aaaaaa" font-size="13">│  </text><text x="44" y="155" fill="#28c840" font-size="13">&gt; Akash Sharma — Full Stack Developer &amp; AI Specialist</text>
  <text x="20" y="173" fill="#aaaaaa" font-size="13">│                                                             │</text>
  <text x="20" y="191" fill="#aaaaaa" font-size="13">│  </text><text x="44" y="191" fill="#6AD3F7" font-size="13">$ cat info.json</text>
  <text x="20" y="209" fill="#aaaaaa" font-size="13">│  </text><text x="44" y="209" fill="#ffbd2e" font-size="13">{</text>
  <text x="20" y="227" fill="#aaaaaa" font-size="13">│  </text><text x="44" y="227" fill="#aaaaaa" font-size="13">  "location"  : </text><text x="168" y="227" fill="#ff5f57" font-size="13">"West Bengal, India 🇮🇳"</text>
  <text x="20" y="245" fill="#aaaaaa" font-size="13">│  </text><text x="44" y="245" fill="#aaaaaa" font-size="13">  "role"      : </text><text x="168" y="245" fill="#ff5f57" font-size="13">"Full Stack Developer"</text>
  <text x="20" y="263" fill="#aaaaaa" font-size="13">│  </text><text x="44" y="263" fill="#aaaaaa" font-size="13">  "company"   : </text><text x="168" y="263" fill="#ff5f57" font-size="13">"QuantumHash Corporation"</text>
  <text x="20" y="281" fill="#aaaaaa" font-size="13">│  </text><text x="44" y="281" fill="#aaaaaa" font-size="13">  "email"     : </text><text x="168" y="281" fill="#ff5f57" font-size="13">"akashsharma9804@gmail.com"</text>
  <text x="20" y="299" fill="#aaaaaa" font-size="13">│  </text><text x="44" y="299" fill="#ffbd2e" font-size="13">}</text>
  <text x="20" y="317" fill="#aaaaaa" font-size="13">│                                                             │</text>
  <text x="20" y="335" fill="#aaaaaa" font-size="13">│  </text><text x="44" y="335" fill="#6AD3F7" font-size="13">$ cat expertise.txt</text>
  <text x="20" y="353" fill="#aaaaaa" font-size="13">│  </text><text x="44" y="353" fill="#28c840" font-size="13">▸ Full Stack Web Development (MERN)</text>
  <text x="20" y="371" fill="#aaaaaa" font-size="13">│  </text><text x="44" y="371" fill="#28c840" font-size="13">▸ AI &amp; LLM Integration · Vector DBs &amp; Semantic Search</text>
  <text x="20" y="389" fill="#aaaaaa" font-size="13">│  </text><text x="44" y="389" fill="#28c840" font-size="13">▸ Real-time &amp; Scalable Architecture · RESTful API Design</text>
  <text x="20" y="407" fill="#aaaaaa" font-size="13">└─────────────────────────────────────────────────────────────┘</text>
</svg>
